# Created with Anim8or 0.95
# Object "Flame":
# ComRec:
g Flame
# No. points 86:
v -0.20790 47.061 0.00001
v 1.6251 47.5458 0.00001
v 3.17905 48.9265 0.00001
v 4.21737 50.9929 0.00001
v 4.39416 53.4304 0.00001
v 4.08658 56.9759 0
v 3.07895 61.1646 0
v 1.57093 66.0566 0
v -0.20790 69.3408 0
v 1.37953 47.5458 -0.93501
v 2.72529 48.9265 -1.72768
v 3.62449 50.9929 -2.25733
v 3.7776 53.4304 -2.30103
v 3.51123 56.9759 -2.12588
v 2.6386 61.1646 -1.62708
v 1.33261 66.0566 -0.88057
v 0.70860 47.5458 -1.61949
v 1.48557 48.9265 -2.99244
v 2.00473 50.9929 -3.90981
v 2.09313 53.4304 -3.9855
v 1.93934 56.9759 -3.68213
v 1.43553 61.1646 -2.81818
v 0.68151 66.0566 -1.52519
v -0.20790 47.5458 -1.87003
v -0.20790 48.9265 -3.45537
v -0.20790 50.9929 -4.51466
v -0.20790 53.4304 -4.60206
v -0.20790 56.9759 -4.25175
v -0.20790 61.1646 -3.25415
v -0.20790 66.0566 -1.76114
v -1.12441 47.5458 -1.61949
v -1.90138 48.9265 -2.99244
v -2.42054 50.9929 -3.90981
v -2.50894 53.4304 -3.9855
v -2.35515 56.9759 -3.68213
v -1.85133 61.1646 -2.81818
v -1.09732 66.0566 -1.52519
v -1.79534 47.5458 -0.93501
v -3.1411 48.9265 -1.72768
v -4.0403 50.9929 -2.25733
v -4.19341 53.4304 -2.30103
v -3.92704 56.9759 -2.12588
v -3.05441 61.1646 -1.62708
v -1.74842 66.0566 -0.88057
v -2.04091 47.5458 0.00001
v -3.59486 48.9265 0.00001
v -4.63318 50.9929 0.00001
v -4.80997 53.4304 0.00001
v -4.50239 56.9759 0
v -3.49476 61.1646 0
v -1.98674 66.0566 0
v -1.79534 47.5458 0.93502
v -3.1411 48.9265 1.72769
v -4.0403 50.9929 2.25734
v -4.19341 53.4304 2.30104
v -3.92704 56.9759 2.12588
v -3.05441 61.1646 1.62708
v -1.74842 66.0566 0.88057
v -1.12441 47.5458 1.61951
v -1.90138 48.9265 2.99245
v -2.42054 50.9929 3.90982
v -2.50894 53.4304 3.98551
v -2.35515 56.9759 3.68213
v -1.85133 61.1646 2.81818
v -1.09732 66.0566 1.52519
v -0.20790 47.5458 1.87004
v -0.20790 48.9265 3.45538
v -0.20790 50.9929 4.51468
v -0.20790 53.4304 4.60207
v -0.20790 56.9759 4.25176
v -0.20790 61.1646 3.25415
v -0.20790 66.0566 1.76113
v 0.70860 47.5458 1.61951
v 1.48557 48.9265 2.99245
v 2.00473 50.9929 3.90982
v 2.09313 53.4304 3.98551
v 1.93934 56.9759 3.68213
v 1.43553 61.1646 2.81818
v 0.68151 66.0566 1.52519
v 1.37953 47.5458 0.93502
v 2.72529 48.9265 1.7277
v 3.62449 50.9929 2.25734
v 3.7776 53.4304 2.30104
v 3.51123 56.9759 2.12588
v 2.6386 61.1646 1.62708
v 1.33261 66.0566 0.88057

# No. normals 182:
vn 0.25514 -0.96458 -0.06701
vn 0.18688 -0.96515 -0.18318
vn 0.06845 -0.96572 -0.25038
vn -0.06844 -0.96572 -0.25038
vn -0.18688 -0.96515 -0.18318
vn -0.25514 -0.96458 -0.06701
vn -0.25514 -0.96458 0.06701
vn -0.18688 -0.96515 0.18318
vn -0.06844 -0.96572 0.25038
vn 0.06845 -0.96572 0.25038
vn 0.18688 -0.96515 0.18318
vn 0.25514 -0.96458 0.06701
vn 0.65433 -0.73643 -0.17185
vn 0.48088 -0.73931 -0.47136
vn 0.17671 -0.74223 -0.64643
vn -0.17671 -0.74223 -0.64643
vn -0.48088 -0.73931 -0.47136
vn -0.65433 -0.73643 -0.17185
vn -0.65433 -0.73643 0.17185
vn -0.48088 -0.73931 0.47136
vn -0.17671 -0.74223 0.64643
vn 0.17671 -0.74223 0.64643
vn 0.48088 -0.73931 0.47136
vn 0.65433 -0.73643 0.17185
vn 0.86990 -0.43711 -0.22847
vn 0.64125 -0.44015 -0.62855
vn 0.23637 -0.44326 -0.86467
vn -0.23637 -0.44326 -0.86467
vn -0.64125 -0.44015 -0.62855
vn -0.86990 -0.43711 -0.22847
vn -0.86990 -0.43711 0.22847
vn -0.64125 -0.44015 0.62855
vn -0.23637 -0.44326 0.86467
vn 0.23637 -0.44326 0.86467
vn 0.64125 -0.44015 0.62855
vn 0.86990 -0.43711 0.22848
vn 0.96483 -0.06998 -0.25341
vn 0.71297 -0.05731 -0.69885
vn 0.26348 -0.03949 -0.96386
vn -0.25866 -0.03461 -0.96535
vn -0.71333 -0.04758 -0.69921
vn -0.96387 -0.06518 -0.25827
vn -0.96483 -0.06998 0.25341
vn -0.71297 -0.05731 0.69885
vn -0.26348 -0.03949 0.96386
vn 0.25866 -0.03461 0.96535
vn 0.71333 -0.04758 0.69921
vn 0.96387 -0.06518 0.25827
vn 0.96255 0.08350 -0.25792
vn 0.70438 0.08772 -0.70438
vn 0.25769 0.09347 -0.96170
vn -0.25525 0.09507 -0.96219
vn -0.70065 0.09094 -0.70769
vn -0.96177 0.08512 -0.26030
vn -0.96255 0.08350 0.25792
vn -0.70438 0.08772 0.70438
vn -0.25769 0.09347 0.96170
vn 0.25525 0.09507 0.96219
vn 0.70065 0.09095 0.70769
vn 0.96177 0.08512 0.26030
vn 0.94026 0.22619 -0.25447
vn 0.68548 0.22526 -0.69237
vn 0.24988 0.22433 -0.94193
vn -0.24988 0.22433 -0.94193
vn -0.68548 0.22526 -0.69237
vn -0.94026 0.22619 -0.25447
vn -0.94026 0.22619 0.25447
vn -0.68548 0.22526 0.69237
vn -0.24988 0.22434 0.94193
vn 0.24988 0.22434 0.94193
vn 0.68548 0.22526 0.69237
vn 0.94026 0.22619 0.25447
vn 0.92518 0.28520 -0.25039
vn 0.67458 0.28406 -0.68136
vn 0.24594 0.28294 -0.92707
vn -0.24594 0.28294 -0.92707
vn -0.67458 0.28406 -0.68136
vn -0.92518 0.28520 -0.25039
vn -0.92518 0.28520 0.25039
vn -0.67458 0.28406 0.68136
vn -0.24594 0.28294 0.92707
vn 0.24594 0.28294 0.92707
vn 0.67458 0.28406 0.68136
vn 0.92518 0.28520 0.25039
vn 0.85541 0.46332 -0.23151
vn 0.62407 0.46174 -0.63034
vn 0.22765 0.46018 -0.85814
vn -0.22765 0.46018 -0.85814
vn -0.62407 0.46174 -0.63034
vn -0.85541 0.46332 -0.23151
vn -0.85541 0.46332 0.23151
vn -0.62407 0.46174 0.63034
vn -0.22765 0.46018 0.85814
vn 0.22765 0.46018 0.85814
vn 0.62407 0.46174 0.63034
vn 0.85541 0.46332 0.23151
vn 0 -1 0
vn 0.47150 -0.88187 0
vn 0.79236 -0.61005 0
vn 0.96417 -0.26529 0.00128
vn 0.999961 0.00868 0.00188
vn 0.98694 0.16108 0.00062
vn 0.96442 0.26438 0
vn 0.92186 0.38753 0
vn 0 1 0
vn 0.40884 -0.88274 -0.23158
vn 0.68811 -0.61183 -0.39009
vn 0.83885 -0.26425 -0.47593
vn 0.86782 0.01140 -0.49675
vn 0.85375 0.16145 -0.49502
vn 0.83352 0.26377 -0.48546
vn 0.79687 0.38671 -0.46416
vn 0.23663 -0.88449 -0.40211
vn 0.39950 -0.61542 -0.67945
vn 0.48930 -0.25868 -0.83287
vn 0.50312 0.02190 -0.86394
vn 0.49171 0.16346 -0.85528
vn 0.47930 0.26254 -0.83746
vn 0.45838 0.38510 -0.80099
vn 0 -0.88537 -0.46489
vn 0 -0.61724 -0.78677
vn 0.00127 -0.25396 -0.96721
vn 0.00188 0.02969 -0.999557
vn 0.00063 0.16505 -0.98629
vn 0 0.26194 -0.96508
vn 0 0.38430 -0.92321
vn -0.23663 -0.88449 -0.40211
vn -0.39950 -0.61542 -0.67945
vn -0.48869 -0.25512 -0.83432
vn -0.50036 0.02694 -0.86540
vn -0.48998 0.16467 -0.85604
vn -0.47930 0.26254 -0.83746
vn -0.45838 0.38510 -0.80099
vn -0.40884 -0.88274 -0.23158
vn -0.68811 -0.61183 -0.39009
vn -0.83909 -0.26055 -0.47753
vn -0.86621 0.01642 -0.49941
vn -0.85264 0.16271 -0.49652
vn -0.83352 0.26377 -0.48546
vn -0.79687 0.38671 -0.46416
vn -0.47150 -0.88187 0
vn -0.79236 -0.61005 0
vn -0.96417 -0.26529 -0.00128
vn -0.999961 0.00868 -0.00188
vn -0.98694 0.16108 -0.00062
vn -0.96442 0.26438 0
vn -0.92186 0.38753 0
vn -0.40884 -0.88274 0.23158
vn -0.68811 -0.61183 0.39009
vn -0.83885 -0.26425 0.47593
vn -0.86782 0.01140 0.49675
vn -0.85375 0.16145 0.49502
vn -0.83352 0.26377 0.48546
vn -0.79687 0.38671 0.46416
vn -0.23663 -0.88449 0.40210
vn -0.39950 -0.61542 0.67945
vn -0.48930 -0.25868 0.83287
vn -0.50312 0.02190 0.86394
vn -0.49171 0.16346 0.85528
vn -0.47930 0.26254 0.83746
vn -0.45838 0.38510 0.80099
vn 0 -0.88537 0.46489
vn 0 -0.61724 0.78677
vn -0.00127 -0.25396 0.96721
vn -0.00188 0.02969 0.999557
vn -0.00063 0.16505 0.98629
vn 0 0.26194 0.96508
vn 0 0.38430 0.92321
vn 0.23663 -0.88449 0.40211
vn 0.39950 -0.61542 0.67945
vn 0.48869 -0.25512 0.83432
vn 0.50036 0.02694 0.86540
vn 0.48998 0.16467 0.85604
vn 0.47930 0.26254 0.83746
vn 0.45838 0.38510 0.80099
vn 0.40884 -0.88274 0.23158
vn 0.68811 -0.61183 0.39009
vn 0.83909 -0.26055 0.47753
vn 0.86621 0.01642 0.49941
vn 0.85264 0.16272 0.49652
vn 0.83352 0.26377 0.48546
vn 0.79687 0.38671 0.46416

# No. texture coordinates 117:
vt 0 0
vt 0 0.12500
vt 0 0.25000
vt 0 0.37500
vt 0 0.50000
vt 0 0.62500
vt 0 0.75000
vt 0 0.87500
vt 0 1
vt 0.08333 0
vt 0.08333 0.12500
vt 0.08333 0.25000
vt 0.08333 0.37500
vt 0.08333 0.50000
vt 0.08333 0.62500
vt 0.08333 0.75000
vt 0.08333 0.87500
vt 0.08333 1
vt 0.16667 0
vt 0.16667 0.12500
vt 0.16667 0.25000
vt 0.16667 0.37500
vt 0.16667 0.50000
vt 0.16667 0.62500
vt 0.16667 0.75000
vt 0.16667 0.87500
vt 0.16667 1
vt 0.25000 0
vt 0.25000 0.12500
vt 0.25000 0.25000
vt 0.25000 0.37500
vt 0.25000 0.50000
vt 0.25000 0.62500
vt 0.25000 0.75000
vt 0.25000 0.87500
vt 0.25000 1
vt 0.33333 0
vt 0.33333 0.12500
vt 0.33333 0.25000
vt 0.33333 0.37500
vt 0.33333 0.50000
vt 0.33333 0.62500
vt 0.33333 0.75000
vt 0.33333 0.87500
vt 0.33333 1
vt 0.41667 0
vt 0.41667 0.12500
vt 0.41667 0.25000
vt 0.41667 0.37500
vt 0.41667 0.50000
vt 0.41667 0.62500
vt 0.41667 0.75000
vt 0.41667 0.87500
vt 0.41667 1
vt 0.50000 0
vt 0.50000 0.12500
vt 0.50000 0.25000
vt 0.50000 0.37500
vt 0.50000 0.50000
vt 0.50000 0.62500
vt 0.50000 0.75000
vt 0.50000 0.87500
vt 0.50000 1
vt 0.58333 0
vt 0.58333 0.12500
vt 0.58333 0.25000
vt 0.58333 0.37500
vt 0.58333 0.50000
vt 0.58333 0.62500
vt 0.58333 0.75000
vt 0.58333 0.87500
vt 0.58333 1
vt 0.66667 0
vt 0.66667 0.12500
vt 0.66667 0.25000
vt 0.66667 0.37500
vt 0.66667 0.50000
vt 0.66667 0.62500
vt 0.66667 0.75000
vt 0.66667 0.87500
vt 0.66667 1
vt 0.75000 0
vt 0.75000 0.12500
vt 0.75000 0.25000
vt 0.75000 0.37500
vt 0.75000 0.50000
vt 0.75000 0.62500
vt 0.75000 0.75000
vt 0.75000 0.87500
vt 0.75000 1
vt 0.83333 0
vt 0.83333 0.12500
vt 0.83333 0.25000
vt 0.83333 0.37500
vt 0.83333 0.50000
vt 0.83333 0.62500
vt 0.83333 0.75000
vt 0.83333 0.87500
vt 0.83333 1
vt 0.91667 0
vt 0.91667 0.12500
vt 0.91667 0.25000
vt 0.91667 0.37500
vt 0.91667 0.50000
vt 0.91667 0.62500
vt 0.91667 0.75000
vt 0.91667 0.87500
vt 0.91667 1
vt 1 0
vt 1 0.12500
vt 1 0.25000
vt 1 0.37500
vt 1 0.50000
vt 1 0.62500
vt 1 0.75000
vt 1 0.87500
vt 1 1

# No. faces 96:
f 10/11/106 2/2/98 1/1/97
f 17/20/113 10/11/106 1/10/97
f 24/29/120 17/20/113 1/19/97
f 31/38/127 24/29/120 1/28/97
f 38/47/134 31/38/127 1/37/97
f 45/56/141 38/47/134 1/46/97
f 52/65/148 45/56/141 1/55/97
f 59/74/155 52/65/148 1/64/97
f 66/83/162 59/74/155 1/73/97
f 73/92/169 66/83/162 1/82/97
f 80/101/176 73/92/169 1/91/97
f 2/110/98 80/101/176 1/100/97
f 11/12/107 3/3/99 2/2/98 10/11/106
f 18/21/114 11/12/107 10/11/106 17/20/113
f 25/30/121 18/21/114 17/20/113 24/29/120
f 32/39/128 25/30/121 24/29/120 31/38/127
f 39/48/135 32/39/128 31/38/127 38/47/134
f 46/57/142 39/48/135 38/47/134 45/56/141
f 53/66/149 46/57/142 45/56/141 52/65/148
f 60/75/156 53/66/149 52/65/148 59/74/155
f 67/84/163 60/75/156 59/74/155 66/83/162
f 74/93/170 67/84/163 66/83/162 73/92/169
f 81/102/177 74/93/170 73/92/169 80/101/176
f 3/111/99 81/102/177 80/101/176 2/110/98
f 12/13/108 4/4/100 3/3/99 11/12/107
f 19/22/115 12/13/108 11/12/107 18/21/114
f 26/31/122 19/22/115 18/21/114 25/30/121
f 33/40/129 26/31/122 25/30/121 32/39/128
f 40/49/136 33/40/129 32/39/128 39/48/135
f 47/58/143 40/49/136 39/48/135 46/57/142
f 54/67/150 47/58/143 46/57/142 53/66/149
f 61/76/157 54/67/150 53/66/149 60/75/156
f 68/85/164 61/76/157 60/75/156 67/84/163
f 75/94/171 68/85/164 67/84/163 74/93/170
f 82/103/178 75/94/171 74/93/170 81/102/177
f 4/112/100 82/103/178 81/102/177 3/111/99
f 13/14/109 5/5/101 4/4/100 12/13/108
f 20/23/116 13/14/109 12/13/108 19/22/115
f 27/32/123 20/23/116 19/22/115 26/31/122
f 34/41/130 27/32/123 26/31/122 33/40/129
f 41/50/137 34/41/130 33/40/129 40/49/136
f 48/59/144 41/50/137 40/49/136 47/58/143
f 55/68/151 48/59/144 47/58/143 54/67/150
f 62/77/158 55/68/151 54/67/150 61/76/157
f 69/86/165 62/77/158 61/76/157 68/85/164
f 76/95/172 69/86/165 68/85/164 75/94/171
f 83/104/179 76/95/172 75/94/171 82/103/178
f 5/113/101 83/104/179 82/103/178 4/112/100
f 14/15/110 6/6/102 5/5/101 13/14/109
f 21/24/117 14/15/110 13/14/109 20/23/116
f 28/33/124 21/24/117 20/23/116 27/32/123
f 35/42/131 28/33/124 27/32/123 34/41/130
f 42/51/138 35/42/131 34/41/130 41/50/137
f 49/60/145 42/51/138 41/50/137 48/59/144
f 56/69/152 49/60/145 48/59/144 55/68/151
f 63/78/159 56/69/152 55/68/151 62/77/158
f 70/87/166 63/78/159 62/77/158 69/86/165
f 77/96/173 70/87/166 69/86/165 76/95/172
f 84/105/180 77/96/173 76/95/172 83/104/179
f 6/114/102 84/105/180 83/104/179 5/113/101
f 15/16/111 7/7/103 6/6/102 14/15/110
f 22/25/118 15/16/111 14/15/110 21/24/117
f 29/34/125 22/25/118 21/24/117 28/33/124
f 36/43/132 29/34/125 28/33/124 35/42/131
f 43/52/139 36/43/132 35/42/131 42/51/138
f 50/61/146 43/52/139 42/51/138 49/60/145
f 57/70/153 50/61/146 49/60/145 56/69/152
f 64/79/160 57/70/153 56/69/152 63/78/159
f 71/88/167 64/79/160 63/78/159 70/87/166
f 78/97/174 71/88/167 70/87/166 77/96/173
f 85/106/181 78/97/174 77/96/173 84/105/180
f 7/115/103 85/106/181 84/105/180 6/114/102
f 16/17/112 8/8/104 7/7/103 15/16/111
f 23/26/119 16/17/112 15/16/111 22/25/118
f 30/35/126 23/26/119 22/25/118 29/34/125
f 37/44/133 30/35/126 29/34/125 36/43/132
f 44/53/140 37/44/133 36/43/132 43/52/139
f 51/62/147 44/53/140 43/52/139 50/61/146
f 58/71/154 51/62/147 50/61/146 57/70/153
f 65/80/161 58/71/154 57/70/153 64/79/160
f 72/89/168 65/80/161 64/79/160 71/88/167
f 79/98/175 72/89/168 71/88/167 78/97/174
f 86/107/182 79/98/175 78/97/174 85/106/181
f 8/116/104 86/107/182 85/106/181 7/115/103
f 9/9/105 8/8/104 16/17/112
f 9/18/105 16/17/112 23/26/119
f 9/27/105 23/26/119 30/35/126
f 9/36/105 30/35/126 37/44/133
f 9/45/105 37/44/133 44/53/140
f 9/54/105 44/53/140 51/62/147
f 9/63/105 51/62/147 58/71/154
f 9/72/105 58/71/154 65/80/161
f 9/81/105 65/80/161 72/89/168
f 9/90/105 72/89/168 79/98/175
f 9/99/105 79/98/175 86/107/182
f 9/108/105 86/107/182 8/116/104


